<?xml version="1.0" standalone="no"?>
<!DOCTYPE svg PUBLIC "-//W3C//DTD SVG 20010904//EN"
 "http://www.w3.org/TR/2001/REC-SVG-20010904/DTD/svg10.dtd">
<svg version="1.0" xmlns="http://www.w3.org/2000/svg"
 width="640.000000pt" height="640.000000pt" viewBox="0 0 640.000000 640.000000"
 preserveAspectRatio="xMidYMid meet">
<metadata>
Created by potrace 1.11, written by Peter Selinger 2001-2013
</metadata>
<g transform="translate(0.000000,640.000000) scale(0.100000,-0.100000)"
fill="#000000" stroke="none">
<path d="M3734 6385 c-5 -13 -104 -15 -806 -15 -856 0 -847 0 -961 -50 -65
-29 -158 -118 -195 -188 -53 -98 -62 -160 -62 -414 0 -196 -2 -228 -15 -228
-18 0 -16 12 -19 -135 -2 -133 0 -145 20 -145 22 0 20 -315 -1 -324 -12 -4
-15 -26 -15 -106 0 -80 3 -102 15 -106 22 -9 22 -309 0 -318 -22 -8 -22 -204
0 -212 13 -5 15 -221 15 -1859 0 -1191 4 -1872 10 -1906 32 -171 162 -311 340
-365 37 -11 248 -14 1150 -14 1215 0 1166 -2 1277 62 87 49 173 146 202 228
36 99 36 96 34 2915 -1 1524 -4 2777 -6 2785 -2 8 -7 29 -12 45 -48 182 -247
334 -436 335 -32 0 -49 5 -53 15 -5 13 -41 15 -241 15 -200 0 -236 -2 -241
-15z"/>
</g>
</svg>
